<svg width="128" height="64" viewBox="0 0 128 64" fill="none" xmlns="http://www.w3.org/2000/svg">
<path d="M84.237 38.608C83.629 38.608 83.097 38.7188 82.641 38.9405C82.1913 39.1622 81.8145 39.4218 81.5105 39.7195C81.2128 40.0172 80.988 40.2863 80.836 40.527C80.684 40.7613 80.6017 40.8912 80.589 40.9165L80 40.6885C80.0127 40.6568 80.0728 40.546 80.1805 40.356C80.2882 40.166 80.4497 39.9412 80.665 39.6815C80.8867 39.4155 81.1622 39.1558 81.4915 38.9025C81.8272 38.6428 82.223 38.4275 82.679 38.2565C83.135 38.0855 83.6543 38 84.237 38C84.7563 38 85.2282 38.0697 85.6525 38.209C86.0768 38.342 86.4442 38.5542 86.7545 38.8455C87.0648 39.1305 87.3023 39.5042 87.467 39.9665C87.638 40.4225 87.7235 40.9735 87.7235 41.6195C87.7235 42.1452 87.581 42.7057 87.296 43.301C87.0173 43.8963 86.6532 44.498 86.2035 45.106C85.7538 45.7077 85.2662 46.2872 84.7405 46.8445C84.2212 47.4018 83.7145 47.9117 83.2205 48.374C82.7265 48.8363 82.2958 49.2227 81.9285 49.533C81.5612 49.8433 81.3142 50.0523 81.1875 50.16H87.619V50.768H80.1235V50.2075C80.4022 49.9795 80.7632 49.6787 81.2065 49.305C81.6562 48.9313 82.1438 48.5038 82.6695 48.0225C83.1952 47.5412 83.7145 47.0313 84.2275 46.493C84.7468 45.9483 85.2218 45.3942 85.6525 44.8305C86.0895 44.2668 86.4378 43.7127 86.6975 43.168C86.9572 42.6233 87.087 42.1103 87.087 41.629C87.087 40.508 86.84 39.7258 86.346 39.2825C85.852 38.8328 85.149 38.608 84.237 38.608Z" fill="#353237"/>
<path d="M90.0783 44.5075C90.0783 43.3675 90.2081 42.389 90.4678 41.572C90.7275 40.7487 91.0726 40.0742 91.5033 39.5485C91.934 39.0228 92.409 38.6333 92.9283 38.38C93.454 38.1267 93.9796 38 94.5053 38C95.0373 38 95.563 38.1267 96.0823 38.38C96.608 38.6333 97.083 39.0228 97.5073 39.5485C97.9316 40.0742 98.2705 40.7487 98.5238 41.572C98.7835 42.389 98.9133 43.3675 98.9133 44.5075C98.9133 45.6222 98.7835 46.588 98.5238 47.405C98.2705 48.2157 97.9316 48.887 97.5073 49.419C97.083 49.951 96.608 50.3468 96.0823 50.6065C95.563 50.8662 95.0373 50.996 94.5053 50.996C93.9796 50.996 93.454 50.8662 92.9283 50.6065C92.409 50.3468 91.934 49.951 91.5033 49.419C91.0726 48.887 90.7275 48.2157 90.4678 47.405C90.2081 46.588 90.0783 45.6222 90.0783 44.5075ZM90.7243 44.5075C90.7243 45.8122 90.9048 46.9015 91.2658 47.7755C91.6268 48.6495 92.0955 49.305 92.6718 49.742C93.2481 50.1727 93.8593 50.388 94.5053 50.388C95.1576 50.388 95.7688 50.1727 96.3388 49.742C96.9151 49.305 97.3806 48.6495 97.7353 47.7755C98.0963 46.9015 98.2768 45.8122 98.2768 44.5075C98.2768 43.1775 98.0963 42.0787 97.7353 41.211C97.3806 40.337 96.9151 39.6847 96.3388 39.254C95.7688 38.8233 95.1576 38.608 94.5053 38.608C93.8593 38.608 93.2481 38.8233 92.6718 39.254C92.0955 39.6847 91.6268 40.337 91.2658 41.211C90.9048 42.085 90.7243 43.1838 90.7243 44.5075Z" fill="#353237"/>
<path d="M105.037 38.608C104.429 38.608 103.897 38.7188 103.441 38.9405C102.991 39.1622 102.614 39.4218 102.31 39.7195C102.013 40.0172 101.788 40.2863 101.636 40.527C101.484 40.7613 101.401 40.8912 101.389 40.9165L100.8 40.6885C100.812 40.6568 100.873 40.546 100.98 40.356C101.088 40.166 101.249 39.9412 101.465 39.6815C101.686 39.4155 101.962 39.1558 102.291 38.9025C102.627 38.6428 103.023 38.4275 103.479 38.2565C103.935 38.0855 104.454 38 105.037 38C105.556 38 106.028 38.0697 106.452 38.209C106.877 38.342 107.244 38.5542 107.554 38.8455C107.865 39.1305 108.102 39.5042 108.267 39.9665C108.438 40.4225 108.523 40.9735 108.523 41.6195C108.523 42.1452 108.381 42.7057 108.096 43.301C107.817 43.8963 107.453 44.498 107.003 45.106C106.554 45.7077 106.066 46.2872 105.54 46.8445C105.021 47.4018 104.514 47.9117 104.02 48.374C103.526 48.8363 103.096 49.2227 102.728 49.533C102.361 49.8433 102.114 50.0523 101.987 50.16H108.419V50.768H100.923V50.2075C101.202 49.9795 101.563 49.6787 102.006 49.305C102.456 48.9313 102.944 48.5038 103.469 48.0225C103.995 47.5412 104.514 47.0313 105.027 46.493C105.547 45.9483 106.022 45.3942 106.452 44.8305C106.889 44.2668 107.238 43.7127 107.497 43.168C107.757 42.6233 107.887 42.1103 107.887 41.629C107.887 40.508 107.64 39.7258 107.146 39.2825C106.652 38.8328 105.949 38.608 105.037 38.608Z" fill="#353237"/>
<path d="M111.676 48.64C111.701 48.7033 111.774 48.8268 111.895 49.0105C112.015 49.1942 112.192 49.3937 112.427 49.609C112.661 49.818 112.962 50.0017 113.329 50.16C113.696 50.312 114.143 50.388 114.669 50.388C115.72 50.388 116.546 50.0492 117.148 49.3715C117.756 48.6938 118.054 47.7913 118.041 46.664C118.028 45.6253 117.753 44.8305 117.215 44.2795C116.683 43.7285 115.986 43.453 115.125 43.453C114.586 43.453 114.118 43.5512 113.719 43.7475C113.32 43.9438 112.993 44.1845 112.74 44.4695C112.487 44.7545 112.309 45.03 112.208 45.296L111.562 45.125L112.588 38.228H118.165V38.836H113.177L112.417 44.0515C112.442 43.9818 112.556 43.852 112.759 43.662C112.968 43.4657 113.272 43.282 113.671 43.111C114.07 42.9337 114.574 42.845 115.182 42.845C115.828 42.845 116.41 42.9907 116.93 43.282C117.449 43.567 117.864 43.9945 118.174 44.5645C118.484 45.1282 118.643 45.828 118.649 46.664C118.655 47.4937 118.51 48.2347 118.212 48.887C117.921 49.5393 117.477 50.0555 116.882 50.4355C116.293 50.8092 115.555 50.996 114.669 50.996C114.042 50.996 113.506 50.9105 113.063 50.7395C112.626 50.5622 112.268 50.3532 111.99 50.1125C111.711 49.8718 111.502 49.647 111.363 49.438C111.223 49.229 111.138 49.0897 111.106 49.02L111.676 48.64Z" fill="#353237"/>
<path d="M16.1 20.2001C14.9 20.2001 13.9 20.5001 12.9 21.0001C11.9 21.5001 11.2 22.3001 10.7 23.3001C10.2 24.3001 9.89998 25.4001 9.89998 26.7001C9.89998 28.0001 10.2 29.2001 10.7 30.2001C11.2 31.2001 12 32.0001 12.9 32.5001C13.8 33.0001 14.9 33.3001 16.1 33.3001C17.2 33.3001 18.1 33.2001 18.7 33.0001C19.3 32.8001 19.9 32.5001 20.3 32.2001V36.0001C19.9 36.2001 19.3 36.4001 18.5 36.5001C17.7 36.7001 16.9 36.7001 16.1 36.7001C14 36.7001 12.2 36.3001 10.7 35.4001C9.19998 34.5001 8.09998 33.4001 7.29998 31.9001C6.49998 30.4001 6.09998 28.7001 6.09998 26.8001C6.09998 24.9001 6.49998 23.3001 7.29998 21.8001C8.09998 20.3001 9.29998 19.1001 10.8 18.2001C12.3 17.3001 14.1 16.9001 16 16.9001C17.9 16.9001 19.3 17.2001 20.2 17.7001V21.4001C19.3 20.6001 17.9 20.2001 16.1 20.2001Z" fill="#5F4BE8"/>
<path d="M25.3999 35.9002C24.3999 35.4002 23.5999 34.6002 23.0999 33.7002C22.4999 32.7002 22.2999 31.7002 22.2999 30.5002C22.2999 29.3002 22.5999 28.2002 23.0999 27.3002C23.6999 26.3002 24.3999 25.6002 25.3999 25.0002C26.3999 24.4002 27.4999 24.2002 28.7999 24.2002C30.0999 24.2002 31.1999 24.5002 32.1999 25.0002C33.1999 25.5002 33.9999 26.3002 34.4999 27.3002C34.9999 28.3002 35.2999 29.3002 35.2999 30.5002C35.2999 31.7002 34.9999 32.8002 34.4999 33.7002C33.9999 34.7002 33.1999 35.4002 32.1999 35.9002C31.1999 36.4002 30.0999 36.7002 28.7999 36.7002C27.4999 36.7002 26.2999 36.5002 25.3999 35.9002ZM30.2999 33.3002C30.7999 33.0002 31.0999 32.6002 31.3999 32.2002C31.5999 31.7002 31.7999 31.2002 31.7999 30.5002C31.7999 29.9002 31.6999 29.3002 31.3999 28.8002C31.0999 28.3002 30.7999 27.9002 30.2999 27.6002C29.7999 27.3002 29.2999 27.2002 28.6999 27.2002C28.0999 27.2002 27.5999 27.3002 27.0999 27.6002C26.5999 27.9002 26.2999 28.3002 25.9999 28.8002C25.6999 29.3002 25.5999 29.9002 25.5999 30.5002C25.5999 31.1002 25.6999 31.7002 25.9999 32.2002C26.2999 32.7002 26.5999 33.1002 27.0999 33.3002C27.5999 33.5002 28.0999 33.7002 28.6999 33.7002C29.2999 33.7002 29.8999 33.6002 30.2999 33.3002Z" fill="#5F4BE8"/>
<path d="M50.2999 16.4001V36.4001H46.7V34.3001C46.5 34.7001 46.3 35.0001 45.9 35.4001C45.5 35.8001 45 36.1001 44.5 36.3001C43.9 36.5001 43.2999 36.7001 42.5999 36.7001C41.4999 36.7001 40.4999 36.4001 39.5999 35.9001C38.6999 35.4001 38 34.6001 37.5 33.6001C37 32.6001 36.7 31.6001 36.7 30.4001C36.7 29.2001 37 28.1001 37.5 27.2001C38 26.3001 38.6999 25.5001 39.5999 24.9001C40.4999 24.3001 41.4999 24.1001 42.5999 24.1001C43.2999 24.1001 43.9999 24.2001 44.5999 24.5001C45.1999 24.7001 45.6 25.0001 46 25.4001C46.4 25.7001 46.6 26.1001 46.7 26.4001V16.4001H50.2999ZM40.2 30.5001C40.2 31.2001 40.2999 31.8001 40.5999 32.3001C40.8999 32.8001 41.2999 33.2001 41.7999 33.5001C42.2999 33.8001 42.8 33.9001 43.4 33.9001C44 33.9001 44.5 33.8001 45 33.5001C45.5 33.2001 45.8999 32.8001 46.0999 32.3001C46.3999 31.8001 46.5 31.2001 46.5 30.5001C46.5 29.8001 46.3999 29.2001 46.0999 28.7001C45.7999 28.2001 45.5 27.8001 45 27.5001C44.5 27.2001 44 27.1001 43.4 27.1001C42.8 27.1001 42.2999 27.2001 41.7999 27.5001C41.2999 27.8001 40.8999 28.2001 40.5999 28.7001C40.2999 29.2001 40.2 29.8001 40.2 30.5001Z" fill="#5F4BE8"/>
<path d="M55.5999 32.4001C55.8999 32.9001 56.1999 33.3001 56.6999 33.5001C57.1999 33.8001 57.6999 33.9001 58.3999 33.9001C59.2999 33.9001 59.9999 33.7001 60.6999 33.4001C61.3999 33.1001 61.8999 32.7001 62.2999 32.3001L63.9999 34.6001C63.3999 35.2001 62.6999 35.7001 61.7999 36.1001C60.8999 36.4001 59.6999 36.6001 58.2999 36.6001C56.9999 36.6001 55.8999 36.3001 54.8999 35.8001C53.8999 35.3001 53.0999 34.5001 52.5999 33.6001C51.9999 32.6001 51.7999 31.5001 51.7999 30.2001C51.7999 29.0001 52.0999 28.0001 52.5999 27.1001C53.0999 26.2001 53.8999 25.4001 54.7999 24.9001C55.6999 24.4001 56.8999 24.1001 58.0999 24.1001C59.2999 24.1001 60.3999 24.3001 61.2999 24.8001C62.1999 25.3001 62.8999 26.0001 63.4999 26.9001C63.9999 27.8001 64.2999 28.9001 64.2999 30.2001C64.2999 30.2001 64.2999 30.3001 64.2999 30.4001C64.2999 30.5001 64.2999 30.5001 64.2999 30.6001C64.2999 30.7001 64.2999 30.7001 64.2999 30.8001V30.9001H55.3999C55.1999 31.5001 55.3999 32.0001 55.5999 32.4001ZM60.2999 28.0001C60.0999 27.6001 59.7999 27.3001 59.3999 27.0001C58.9999 26.7001 58.5999 26.6001 58.0999 26.6001C57.5999 26.6001 57.0999 26.7001 56.6999 27.0001C56.2999 27.2001 55.9999 27.6001 55.6999 28.0001C55.4999 28.4001 55.2999 28.9001 55.2999 29.3001H60.5999C60.5999 28.9001 60.4999 28.4001 60.2999 28.0001Z" fill="#5F4BE8"/>
<path d="M75.5 20.2001C74.3 20.2001 73.3 20.5001 72.3 21.0001C71.3 21.5001 70.6 22.3001 70.1 23.3001C69.6 24.3001 69.3 25.4001 69.3 26.7001C69.3 28.0001 69.6 29.2001 70.1 30.2001C70.6 31.2001 71.4 32.0001 72.3 32.5001C73.2 33.0001 74.3 33.3001 75.5 33.3001C76.6 33.3001 77.5 33.2001 78.1 33.0001C78.7 32.8001 79.3 32.5001 79.7 32.2001V36.0001C79.3 36.2001 78.7 36.4001 77.9 36.5001C77.1 36.7001 76.3 36.7001 75.5 36.7001C73.4 36.7001 71.6 36.3001 70.1 35.4001C68.6 34.5001 67.5 33.4001 66.7 31.9001C65.9 30.4001 65.5 28.7001 65.5 26.8001C65.5 24.9001 65.9 23.3001 66.7 21.8001C67.5 20.3001 68.7 19.1001 70.2 18.2001C71.7 17.3001 73.5 16.9001 75.4 16.9001C77.3 16.9001 78.7 17.2001 79.6 17.7001V21.4001C78.8 20.6001 77.4 20.2001 75.5 20.2001Z" fill="#5F4BE8"/>
<path d="M84.8 35.9002C83.8 35.4002 83 34.6002 82.5 33.7002C82 32.8002 81.7 31.7002 81.7 30.5002C81.7 29.3002 82 28.2002 82.5 27.3002C83 26.4002 83.8 25.6002 84.8 25.0002C85.8 24.5002 86.9 24.2002 88.2 24.2002C89.5 24.2002 90.6 24.5002 91.6 25.0002C92.6 25.5002 93.4 26.3002 93.9 27.3002C94.4 28.3002 94.7 29.3002 94.7 30.5002C94.7 31.7002 94.4 32.8002 93.9 33.7002C93.4 34.7002 92.6 35.4002 91.6 35.9002C90.6 36.4002 89.5 36.7002 88.2 36.7002C86.9 36.7002 85.8 36.5002 84.8 35.9002ZM89.7 33.3002C90.2 33.0002 90.5 32.6002 90.8 32.2002C91 31.7002 91.2 31.2002 91.2 30.5002C91.2 29.9002 91.1 29.3002 90.8 28.8002C90.6 28.3002 90.2 27.9002 89.7 27.6002C89.2 27.3002 88.7 27.2002 88.1 27.2002C87.5 27.2002 87 27.3002 86.5 27.6002C86 27.9002 85.7 28.3002 85.4 28.8002C85.1 29.3002 85 29.9002 85 30.5002C85 31.1002 85.1 31.7002 85.4 32.2002C85.7 32.7002 86 33.1002 86.5 33.3002C87 33.5002 87.5 33.7002 88.1 33.7002C88.7 33.7002 89.3 33.6002 89.7 33.3002Z" fill="#5F4BE8"/>
<path d="M106.6 24.7C107.4 25 108 25.6 108.5 26.3C109 27 109.2 28 109.2 29.1V36.4H105.5V29.7C105.5 28.7 105.3 28 104.8 27.5C104.4 27 103.7 26.8 103 26.8C102.5 26.8 102 26.9 101.6 27.2C101.2 27.5 100.8 27.8 100.5 28.3C100.2 28.8 100.1 29.3 100.1 29.9V36.4H96.4V24.5H100.1V26.4C100.2 26.1 100.4 25.7 100.8 25.4C101.2 25.1 101.7 24.8 102.3 24.5C102.9 24.3 103.5 24.2 104.1 24.2C105 24.1 105.8 24.3 106.6 24.7Z" fill="#5F4BE8"/>
<path d="M112.6 21.2001C112.6 20.1001 112.8 19.1001 113.3 18.4001C113.8 17.7001 114.3 17.0001 115.1 16.7001C115.8 16.3001 116.6 16.1001 117.4 16.1001C117.9 16.1001 118.4 16.1001 118.9 16.2001C119.4 16.3001 119.7 16.4001 120 16.5001C120.3 16.6001 120.4 16.7001 120.5 16.8001L119.2 19.6001C119.1 19.5001 119 19.4001 118.8 19.3001C118.6 19.2001 118.3 19.2001 118 19.2001C117.6 19.2001 117.2 19.4001 116.9 19.7001C116.6 20.0001 116.4 20.7001 116.4 21.5001V24.4001H119.3V27.4001H116.4V36.3001H112.8V27.4001H110.6V24.4001H112.8V21.2001H112.6Z" fill="#5F4BE8"/>
</svg>
