<svg width="115" height="35" viewBox="0 0 115 35" fill="none" xmlns="http://www.w3.org/2000/svg">
<path d="M10 4.1C8.8 4.1 7.8 4.4 6.8 4.9C5.8 5.4 5.1 6.2 4.6 7.2C4.1 8.2 3.8 9.3 3.8 10.6C3.8 11.9 4.1 13.1 4.6 14.1C5.1 15.1 5.9 15.9 6.8 16.4C7.7 16.9 8.8 17.2 10 17.2C11.1 17.2 12 17.1 12.6 16.9C13.2 16.7 13.8 16.4 14.2 16.1V19.9C13.8 20.1 13.2 20.3 12.4 20.4C11.6 20.6 10.8 20.6 10 20.6C7.9 20.6 6.1 20.2 4.6 19.3C3.1 18.4 2 17.3 1.2 15.8C0.4 14.3 0 12.6 0 10.7C0 8.8 0.4 7.2 1.2 5.7C2 4.2 3.2 3 4.7 2.1C6.2 1.2 8 0.799999 9.9 0.799999C11.8 0.799999 13.2 1.1 14.1 1.6V5.3C13.2 4.5 11.8 4.1 10 4.1Z" fill="#5F4BE8"/>
<path d="M19.3 19.8C18.3 19.3 17.5 18.5 17 17.6C16.4 16.6 16.2 15.6 16.2 14.4C16.2 13.2 16.5 12.1 17 11.2C17.6 10.2 18.3 9.5 19.3 8.9C20.3 8.3 21.4 8.1 22.7 8.1C24 8.1 25.1 8.4 26.1 8.9C27.1 9.4 27.9 10.2 28.4 11.2C28.9 12.2 29.2 13.2 29.2 14.4C29.2 15.6 28.9 16.7 28.4 17.6C27.9 18.6 27.1 19.3 26.1 19.8C25.1 20.3 24 20.6 22.7 20.6C21.4 20.6 20.2 20.4 19.3 19.8ZM24.2 17.2C24.7 16.9 25 16.5 25.3 16.1C25.5 15.6 25.7 15.1 25.7 14.4C25.7 13.8 25.6 13.2 25.3 12.7C25 12.2 24.7 11.8 24.2 11.5C23.7 11.2 23.2 11.1 22.6 11.1C22 11.1 21.5 11.2 21 11.5C20.5 11.8 20.2 12.2 19.9 12.7C19.6 13.2 19.5 13.8 19.5 14.4C19.5 15 19.6 15.6 19.9 16.1C20.2 16.6 20.5 17 21 17.2C21.5 17.4 22 17.6 22.6 17.6C23.2 17.6 23.8 17.5 24.2 17.2Z" fill="#5F4BE8"/>
<path d="M44.2 0.299999V20.3H40.6V18.2C40.4 18.6 40.2 18.9 39.8 19.3C39.4 19.7 38.9 20 38.4 20.2C37.8 20.4 37.2 20.6 36.5 20.6C35.4 20.6 34.4 20.3 33.5 19.8C32.6 19.3 31.9 18.5 31.4 17.5C30.9 16.5 30.6 15.5 30.6 14.3C30.6 13.1 30.9 12 31.4 11.1C31.9 10.2 32.6 9.4 33.5 8.8C34.4 8.2 35.4 8 36.5 8C37.2 8 37.9 8.1 38.5 8.4C39.1 8.6 39.5 8.9 39.9 9.3C40.3 9.6 40.5 10 40.6 10.3V0.299999H44.2ZM34.1 14.4C34.1 15.1 34.2 15.7 34.5 16.2C34.8 16.7 35.2 17.1 35.7 17.4C36.2 17.7 36.7 17.8 37.3 17.8C37.9 17.8 38.4 17.7 38.9 17.4C39.4 17.1 39.8 16.7 40 16.2C40.3 15.7 40.4 15.1 40.4 14.4C40.4 13.7 40.3 13.1 40 12.6C39.7 12.1 39.4 11.7 38.9 11.4C38.4 11.1 37.9 11 37.3 11C36.7 11 36.2 11.1 35.7 11.4C35.2 11.7 34.8 12.1 34.5 12.6C34.2 13.1 34.1 13.7 34.1 14.4Z" fill="#5F4BE8"/>
<path d="M49.5 16.3C49.8 16.8 50.1 17.2 50.6 17.4C51.1 17.7 51.6 17.8 52.3 17.8C53.2 17.8 53.9 17.6 54.6 17.3C55.3 17 55.8 16.6 56.2 16.2L57.9 18.5C57.3 19.1 56.6 19.6 55.7 20C54.8 20.3 53.6 20.5 52.2 20.5C50.9 20.5 49.8 20.2 48.8 19.7C47.8 19.2 47 18.4 46.5 17.5C45.9 16.5 45.7 15.4 45.7 14.1C45.7 12.9 46 11.9 46.5 11C47 10.1 47.8 9.3 48.7 8.8C49.6 8.3 50.8 8 52 8C53.2 8 54.3 8.2 55.2 8.7C56.1 9.2 56.8 9.9 57.4 10.8C57.9 11.7 58.2 12.8 58.2 14.1C58.2 14.1 58.2 14.2 58.2 14.3C58.2 14.4 58.2 14.4 58.2 14.5C58.2 14.6 58.2 14.6 58.2 14.7V14.8H49.3C49.1 15.4 49.3 15.9 49.5 16.3ZM54.2 11.9C54 11.5 53.7 11.2 53.3 10.9C52.9 10.6 52.5 10.5 52 10.5C51.5 10.5 51 10.6 50.6 10.9C50.2 11.1 49.9 11.5 49.6 11.9C49.4 12.3 49.2 12.8 49.2 13.2H54.5C54.5 12.8 54.4 12.3 54.2 11.9Z" fill="#5F4BE8"/>
<path d="M69.4 4.1C68.2 4.1 67.2 4.4 66.2 4.9C65.2 5.4 64.5 6.2 64 7.2C63.5 8.2 63.2 9.3 63.2 10.6C63.2 11.9 63.5 13.1 64 14.1C64.5 15.1 65.3 15.9 66.2 16.4C67.1 16.9 68.2 17.2 69.4 17.2C70.5 17.2 71.4 17.1 72 16.9C72.6 16.7 73.2 16.4 73.6 16.1V19.9C73.2 20.1 72.6 20.3 71.8 20.4C71 20.6 70.2 20.6 69.4 20.6C67.3 20.6 65.5 20.2 64 19.3C62.5 18.4 61.4 17.3 60.6 15.8C59.8 14.3 59.4 12.6 59.4 10.7C59.4 8.8 59.8 7.2 60.6 5.7C61.4 4.2 62.6 3 64.1 2.1C65.6 1.2 67.4 0.799999 69.3 0.799999C71.2 0.799999 72.6 1.1 73.5 1.6V5.3C72.7 4.5 71.3 4.1 69.4 4.1Z" fill="#5F4BE8"/>
<path d="M78.7 19.8C77.7 19.3 76.9 18.5 76.4 17.6C75.9 16.7 75.6 15.6 75.6 14.4C75.6 13.2 75.9 12.1 76.4 11.2C76.9 10.3 77.7 9.5 78.7 8.9C79.7 8.4 80.8 8.1 82.1 8.1C83.4 8.1 84.5 8.4 85.5 8.9C86.5 9.4 87.3 10.2 87.8 11.2C88.3 12.2 88.6 13.2 88.6 14.4C88.6 15.6 88.3 16.7 87.8 17.6C87.3 18.6 86.5 19.3 85.5 19.8C84.5 20.3 83.4 20.6 82.1 20.6C80.8 20.6 79.7 20.4 78.7 19.8ZM83.6 17.2C84.1 16.9 84.4 16.5 84.7 16.1C84.9 15.6 85.1 15.1 85.1 14.4C85.1 13.8 85 13.2 84.7 12.7C84.5 12.2 84.1 11.8 83.6 11.5C83.1 11.2 82.6 11.1 82 11.1C81.4 11.1 80.9 11.2 80.4 11.5C79.9 11.8 79.6 12.2 79.3 12.7C79 13.2 78.9 13.8 78.9 14.4C78.9 15 79 15.6 79.3 16.1C79.6 16.6 79.9 17 80.4 17.2C80.9 17.4 81.4 17.6 82 17.6C82.6 17.6 83.2 17.5 83.6 17.2Z" fill="#5F4BE8"/>
<path d="M100.5 8.6C101.3 8.9 101.9 9.5 102.4 10.2C102.9 10.9 103.1 11.9 103.1 13V20.3H99.4V13.6C99.4 12.6 99.2 11.9 98.7 11.4C98.3 10.9 97.6 10.7 96.9 10.7C96.4 10.7 95.9 10.8 95.5 11.1C95.1 11.4 94.7 11.7 94.4 12.2C94.1 12.7 94 13.2 94 13.8V20.3H90.3V8.4H94V10.3C94.1 10 94.3 9.6 94.7 9.3C95.1 9 95.6 8.7 96.2 8.4C96.8 8.2 97.4 8.1 98 8.1C98.9 8 99.7 8.2 100.5 8.6Z" fill="#5F4BE8"/>
<path d="M106.5 5.1C106.5 4 106.7 3 107.2 2.3C107.7 1.6 108.2 0.9 109 0.6C109.7 0.2 110.5 0 111.3 0C111.8 0 112.3 3.7998e-07 112.8 0.1C113.3 0.2 113.6 0.3 113.9 0.4C114.2 0.5 114.3 0.599999 114.4 0.699999L113.1 3.5C113 3.4 112.9 3.3 112.7 3.2C112.5 3.1 112.2 3.1 111.9 3.1C111.5 3.1 111.1 3.3 110.8 3.6C110.5 3.9 110.3 4.6 110.3 5.4V8.3H113.2V11.3H110.3V20.2H106.7V11.3H104.5V8.3H106.7V5.1H106.5Z" fill="#5F4BE8"/>
<path d="M79.9877 22.208C79.3797 22.208 78.8477 22.3188 78.3917 22.5405C77.942 22.7622 77.5652 23.0218 77.2612 23.3195C76.9635 23.6172 76.7387 23.8863 76.5867 24.127C76.4347 24.3613 76.3524 24.4912 76.3397 24.5165L75.7507 24.2885C75.7634 24.2568 75.8235 24.146 75.9312 23.956C76.0388 23.766 76.2004 23.5412 76.4157 23.2815C76.6374 23.0155 76.9129 22.7558 77.2422 22.5025C77.5779 22.2428 77.9737 22.0275 78.4297 21.8565C78.8857 21.6855 79.405 21.6 79.9877 21.6C80.507 21.6 80.9789 21.6697 81.4032 21.809C81.8275 21.942 82.1949 22.1542 82.5052 22.4455C82.8155 22.7305 83.053 23.1042 83.2177 23.5665C83.3887 24.0225 83.4742 24.5735 83.4742 25.2195C83.4742 25.7452 83.3317 26.3057 83.0467 26.901C82.768 27.4963 82.4039 28.098 81.9542 28.706C81.5045 29.3077 81.0169 29.8872 80.4912 30.4445C79.9719 31.0018 79.4652 31.5117 78.9712 31.974C78.4772 32.4363 78.0465 32.8227 77.6792 33.133C77.3119 33.4433 77.0649 33.6523 76.9382 33.76H83.3697V34.368H75.8742V33.8075C76.1529 33.5795 76.5139 33.2787 76.9572 32.905C77.4069 32.5313 77.8945 32.1038 78.4202 31.6225C78.9459 31.1412 79.4652 30.6313 79.9782 30.093C80.4975 29.5483 80.9725 28.9942 81.4032 28.4305C81.8402 27.8668 82.1885 27.3127 82.4482 26.768C82.7079 26.2233 82.8377 25.7103 82.8377 25.229C82.8377 24.108 82.5907 23.3258 82.0967 22.8825C81.6027 22.4328 80.8997 22.208 79.9877 22.208Z" fill="#353237"/>
<path d="M85.829 28.1075C85.829 26.9675 85.9588 25.989 86.2185 25.172C86.4782 24.3487 86.8233 23.6742 87.254 23.1485C87.6847 22.6228 88.1597 22.2333 88.679 21.98C89.2047 21.7267 89.7303 21.6 90.256 21.6C90.788 21.6 91.3137 21.7267 91.833 21.98C92.3587 22.2333 92.8337 22.6228 93.258 23.1485C93.6823 23.6742 94.0212 24.3487 94.2745 25.172C94.5342 25.989 94.664 26.9675 94.664 28.1075C94.664 29.2222 94.5342 30.188 94.2745 31.005C94.0212 31.8157 93.6823 32.487 93.258 33.019C92.8337 33.551 92.3587 33.9468 91.833 34.2065C91.3137 34.4662 90.788 34.596 90.256 34.596C89.7303 34.596 89.2047 34.4662 88.679 34.2065C88.1597 33.9468 87.6847 33.551 87.254 33.019C86.8233 32.487 86.4782 31.8157 86.2185 31.005C85.9588 30.188 85.829 29.2222 85.829 28.1075ZM86.475 28.1075C86.475 29.4122 86.6555 30.5015 87.0165 31.3755C87.3775 32.2495 87.8462 32.905 88.4225 33.342C88.9988 33.7727 89.61 33.988 90.256 33.988C90.9083 33.988 91.5195 33.7727 92.0895 33.342C92.6658 32.905 93.1313 32.2495 93.486 31.3755C93.847 30.5015 94.0275 29.4122 94.0275 28.1075C94.0275 26.7775 93.847 25.6787 93.486 24.811C93.1313 23.937 92.6658 23.2847 92.0895 22.854C91.5195 22.4233 90.9083 22.208 90.256 22.208C89.61 22.208 88.9988 22.4233 88.4225 22.854C87.8462 23.2847 87.3775 23.937 87.0165 24.811C86.6555 25.685 86.475 26.7838 86.475 28.1075Z" fill="#353237"/>
<path d="M100.787 22.208C100.179 22.208 99.6475 22.3188 99.1915 22.5405C98.7418 22.7622 98.365 23.0218 98.061 23.3195C97.7633 23.6172 97.5385 23.8863 97.3865 24.127C97.2345 24.3613 97.1522 24.4912 97.1395 24.5165L96.5505 24.2885C96.5632 24.2568 96.6233 24.146 96.731 23.956C96.8387 23.766 97.0002 23.5412 97.2155 23.2815C97.4372 23.0155 97.7127 22.7558 98.042 22.5025C98.3777 22.2428 98.7735 22.0275 99.2295 21.8565C99.6855 21.6855 100.205 21.6 100.787 21.6C101.307 21.6 101.779 21.6697 102.203 21.809C102.627 21.942 102.995 22.1542 103.305 22.4455C103.615 22.7305 103.853 23.1042 104.017 23.5665C104.188 24.0225 104.274 24.5735 104.274 25.2195C104.274 25.7452 104.131 26.3057 103.846 26.901C103.568 27.4963 103.204 28.098 102.754 28.706C102.304 29.3077 101.817 29.8872 101.291 30.4445C100.772 31.0018 100.265 31.5117 99.771 31.974C99.277 32.4363 98.8463 32.8227 98.479 33.133C98.1117 33.4433 97.8647 33.6523 97.738 33.76H104.169V34.368H96.674V33.8075C96.9527 33.5795 97.3137 33.2787 97.757 32.905C98.2067 32.5313 98.6943 32.1038 99.22 31.6225C99.7457 31.1412 100.265 30.6313 100.778 30.093C101.297 29.5483 101.772 28.9942 102.203 28.4305C102.64 27.8668 102.988 27.3127 103.248 26.768C103.508 26.2233 103.637 25.7103 103.637 25.229C103.637 24.108 103.39 23.3258 102.896 22.8825C102.402 22.4328 101.699 22.208 100.787 22.208Z" fill="#353237"/>
<path d="M107.427 32.24C107.452 32.3033 107.525 32.4268 107.645 32.6105C107.766 32.7942 107.943 32.9937 108.177 33.209C108.412 33.418 108.712 33.6017 109.08 33.76C109.447 33.912 109.894 33.988 110.419 33.988C111.471 33.988 112.297 33.6492 112.899 32.9715C113.507 32.2938 113.804 31.3913 113.792 30.264C113.779 29.2253 113.504 28.4305 112.965 27.8795C112.433 27.3285 111.737 27.053 110.875 27.053C110.337 27.053 109.868 27.1512 109.469 27.3475C109.07 27.5438 108.744 27.7845 108.491 28.0695C108.237 28.3545 108.06 28.63 107.959 28.896L107.313 28.725L108.339 21.828H113.915V22.436H108.928L108.168 27.6515C108.193 27.5818 108.307 27.452 108.51 27.262C108.719 27.0657 109.023 26.882 109.422 26.711C109.821 26.5337 110.324 26.445 110.932 26.445C111.578 26.445 112.161 26.5907 112.68 26.882C113.2 27.167 113.614 27.5945 113.925 28.1645C114.235 28.7282 114.393 29.428 114.4 30.264C114.406 31.0937 114.26 31.8347 113.963 32.487C113.671 33.1393 113.228 33.6555 112.633 34.0355C112.044 34.4092 111.306 34.596 110.419 34.596C109.792 34.596 109.257 34.5105 108.814 34.3395C108.377 34.1622 108.019 33.9532 107.74 33.7125C107.462 33.4718 107.253 33.247 107.113 33.038C106.974 32.829 106.888 32.6897 106.857 32.62L107.427 32.24Z" fill="#353237"/>
</svg>
